<svg width="333" height="384" viewBox="0 0 333 384" fill="none" xmlns="http://www.w3.org/2000/svg">
<g clip-path="url(#clip0_6_3)">
<g style="mix-blend-mode:darken">
<path d="M166.5 14.7802L12.8172 103.39V280.61L166.5 369.22L320.183 280.61V203.294L170.046 116.728L100.629 158.197L247.024 243.287L246.918 243.468L253.172 254.285L175.472 299.085L175.23 298.666L174.987 299.085L97.2872 254.285L103.696 243.2L175.23 284.445L234.028 250.543L81.867 162.102L88.2091 151.22L87.98 150.838L169.063 102.4L169.119 102.493L169.587 101.683L320.183 188.513V188.507L333 195.897V288L166.5 384L0 288V96L166.5 0L333 96V110.811L320.183 103.421V103.39L166.5 14.7802Z" fill="#48F759"/>
</g>
</g>
<defs>
<clipPath id="clip0_6_3">
<rect width="333" height="384" fill="white"/>
</clipPath>
</defs>
</svg>
